<svg xmlns="http://www.w3.org/2000/svg" version="1.1" width="512" height="512" viewBox="0 0 512 512">
  <g>
    <path fill="#262626" d="M392 128c-5.473 0-10.941.371-16.348 1.11A120.4 120.4 0 0 0 376 120C376 53.832 322.168 0 256 0a119.875 119.875 0 0 0-79.066 29.734c-19.82 17.375-33.325 40.7-38.528 66.29-.804-.016-1.61-.024-2.406-.024C61.008 96 0 157.012 0 232s61.008 136 136 136h256c66.168 0 120-53.832 120-120s-53.832-120-120-120z"/>
    
    <g fill="#e53935">
      <path d="M346.255 188.394L323.606 165.745c-8.098-8.098-21.23-8.098-29.328 0L256 203.99l-38.278-38.245c-8.098-8.098-21.23-8.098-29.328 0l-22.649 22.649c-8.098 8.098-8.098 21.23 0 29.328L226.672 256l-60.927 60.927c-8.098 8.098-8.098 21.23 0 29.328l22.649 22.649c8.098 8.098 21.23 8.098 29.328 0L256 308.01l38.278 38.245c8.098 8.098 21.23 8.098 29.328 0l22.649-22.649c8.098-8.098 8.098-21.23 0-29.328L285.328 256l60.927-60.927c8.098-8.098 8.098-21.23 0-29.328z"/>
    </g>
  </g>
</svg>
