<svg xmlns="http://www.w3.org/2000/svg" version="1.1" xmlns:xlink="http://www.w3.org/1999/xlink" width="512" height="512" x="0" y="0" viewBox="0 0 512 512" style="enable-background:new 0 0 512 512" xml:space="preserve" class=""><g><g fill-rule="evenodd" clip-rule="evenodd"><path fill="#eceff1" d="M19.312 8.001h306.545c2.754 0 5.124.982 7.071 2.929l56.146 56.145c1.947 1.947 2.929 4.317 2.929 7.071v419.855c0 5.508-4.492 10-10 10H19.312c-5.508 0-10-4.492-10-10v-476c0-5.508 4.492-10 10-10z" opacity="1" data-original="#eceff1" class=""></path><path fill="#d1d1d6" d="M200.657 8.001h125.2c2.754 0 5.124.982 7.071 2.929l56.146 56.145c1.947 1.947 2.929 4.317 2.929 7.071v419.855c0 5.508-4.492 10-10 10H200.657z" opacity="1" data-original="#d1d1d6" class=""></path><path fill="#a79ba7" d="M329.999 8.868c1.062.485 2.039 1.173 2.929 2.062l56.146 56.145a10.025 10.025 0 0 1 2.062 2.929h-56.137a5.01 5.01 0 0 1-5-5z" opacity="1" data-original="#a79ba7" class=""></path><path fill="#ff2626" d="M210.657 197.461h159.372v-42.494c0-2.004 1.103-3.719 2.927-4.55s3.841-.538 5.354.777l122.664 106.654c1.131.984 1.719 2.274 1.719 3.773s-.588 2.789-1.719 3.773L378.309 372.047c-1.513 1.315-3.53 1.607-5.354.777-1.824-.831-2.927-2.546-2.927-4.55V325.78H210.657c-5.508 0-10-4.492-10-10V207.46c0-5.507 4.492-9.999 10-9.999z" opacity="1" data-original="#ffe177" class=""></path><path fill="#cd0600" d="M502.692 261.621c0 1.499-.588 2.789-1.719 3.773L378.309 372.047c-1.513 1.315-3.53 1.607-5.354.777-1.824-.831-2.927-2.546-2.927-4.55V325.78H210.657c-5.508 0-10-4.492-10-10v-54.16h302.035z" opacity="1" data-original="#ffd064" class=""></path><path d="M491.811 261.621 376.713 161.553v35.907c0 4.425-3.585 8-7.972 8H206.756v112.324h161.985c4.387 0 7.972 3.581 7.972 8v35.907zM382.704 377.7V496H15.995V16.002h304.678v54.001c0 4.42 3.585 7.995 8.019 7.995h54.011v67.545l-8.727-7.58a8.011 8.011 0 0 0-8.585-1.25 8.028 8.028 0 0 0-4.67 7.279v45.468H198.736c-4.387 0-7.972 3.58-7.972 8v128.324c0 4.42 3.585 7.995 7.972 7.995h161.986v45.473a8.029 8.029 0 0 0 4.67 7.279 8.188 8.188 0 0 0 3.302.722c1.934 0 3.773-.679 5.283-1.972zM336.712 62.003h34.671l-34.671-34.69zM512 261.621a8.021 8.021 0 0 1-2.736 6.043l-110.569 96.125v140.212c0 4.42-3.585 8-8.019 8H8.024c-4.434 0-8.019-3.58-8.019-8v-496c0-4.42 3.585-8 8.019-8h320.669a8.02 8.02 0 0 1 5.66 2.34l61.983 62.011a7.96 7.96 0 0 1 2.359 5.651v89.451l110.569 96.13a7.985 7.985 0 0 1 2.736 6.037zM86.092 102.74h162.599c4.434 0 8.019-3.58 8.019-8 0-4.406-3.585-7.995-8.019-7.995H86.092c-4.434 0-8.019 3.59-8.019 7.995 0 4.42 3.585 8 8.019 8zm226.516 317.749H86.092c-4.434 0-8.019 3.594-8.019 8 0 4.425 3.585 8.005 8.019 8.005h226.516c4.387 0 7.972-3.58 7.972-8.005-.001-4.406-3.586-8-7.972-8zm0-66.747c4.387 0 7.972 3.59 7.972 8 0 4.42-3.585 8-7.972 8H86.092c-4.434 0-8.019-3.581-8.019-8 0-4.41 3.585-8 8.019-8zM86.092 236.243h78.823c4.387 0 7.972-3.58 7.972-8.005 0-4.406-3.585-7.996-7.972-7.996H86.092c-4.434 0-8.019 3.59-8.019 7.996 0 4.425 3.585 8.005 8.019 8.005zm0 66.748h78.823c4.387 0 7.972-3.58 7.972-8 0-4.406-3.585-8-7.972-8H86.092c-4.434 0-8.019 3.595-8.019 8 0 4.419 3.585 8 8.019 8zm-8.019-141.499c0-4.411 3.585-8 8.019-8h226.516c4.387 0 7.972 3.59 7.972 8 0 4.42-3.585 8-7.972 8H86.092c-4.434 0-8.019-3.581-8.019-8z" fill="#000000" opacity="1" data-original="#000000" class=""></path></g></g></svg>