<svg xmlns="http://www.w3.org/2000/svg" version="1.1" xmlns:xlink="http://www.w3.org/1999/xlink" width="512" height="512" x="0" y="0" viewBox="0 0 24 24" style="enable-background:new 0 0 512 512" xml:space="preserve" class=""><g><path d="M14.3 2H9.6c-1 0-1.9.8-1.9 1.9v.9c0 1 .8 1.9 1.9 1.9h4.7c1 0 1.9-.8 1.9-1.9v-.9c0-1.1-.8-1.9-1.9-1.9z" fill="#0094ff" opacity="1" data-original="#000000" class=""></path><path d="M17.2 4.8c0 1.6-1.3 2.9-2.9 2.9H9.6C8 7.7 6.7 6.4 6.7 4.8c0-.6-.6-.9-1.1-.7-1.4.8-2.3 2.3-2.3 4v9.4c0 2.5 2 4.5 4.5 4.5h8.5c2.5 0 4.5-2 4.5-4.5V8.1c0-1.7-1-3.2-2.4-3.9-.6-.3-1.2.1-1.2.6zm-1.7 12.7c-.2.2-.3.2-.5.2s-.4-.1-.5-.2l-4.7-4.7V14c0 .4-.3.8-.8.8s-.8-.4-.8-.8v-3c0-.4.3-.8.8-.8h3c.4 0 .8.3.8.8s-.3.8-.8.8h-1.2l4.7 4.7c.3.3.3.7 0 1z" fill="#0094ff" opacity="1" data-original="#000000" class=""></path></g></svg>
