<svg xmlns="http://www.w3.org/2000/svg" version="1.1" xmlns:xlink="http://www.w3.org/1999/xlink" width="512" height="512" x="0" y="0" viewBox="0 0 58 60" style="enable-background:new 0 0 512 512" xml:space="preserve" class=""><g><g fill="none" fill-rule="evenodd"><g transform="translate(0 7)"><path fill="#9e9e9e" d="M50.6 27.22a12.967 12.967 0 0 1-14.35 5.97L22.73 51.33a.684.684 0 0 1-.52.28l-5.64.39a.7.7 0 0 1-.74-.55l-1.1-4.89a2.113 2.113 0 0 1 .36-1.71c.27-.367.653-.634 1.09-.76l2.16-.64a.7.7 0 0 0 .5-.79l-.25-1.77a.716.716 0 0 1 .5-.79l2.24-.66a.71.71 0 0 0 .5-.79c-.11-.76-.28-1.7-.26-1.82a.716.716 0 0 1 .5-.73l2.24-.66a.7.7 0 0 0 .5-.79l-.3-2.09a.743.743 0 0 1 .13-.52l3.59-4.81a12.75 12.75 0 0 1-1.42-3.52 12.981 12.981 0 0 1 20.38-13.53 12 12 0 0 1 1.12.93 13.044 13.044 0 0 1 2.29 16.11z" opacity="1" data-original="#9e9e9e" class=""></path><path fill="#707070" d="M33.25 33.19 19.73 51.33a.684.684 0 0 1-.52.28l-3.149.218c.14.123.323.185.509.172l5.64-.39a.684.684 0 0 0 .52-.28l13.237-17.76a12.945 12.945 0 0 1-2.717-.38zM48.31 11.11a12 12 0 0 0-1.12-.93 12.948 12.948 0 0 0-9.27-2.486 12.941 12.941 0 0 1 6.27 2.486 12 12 0 0 1 1.12.93 12.988 12.988 0 0 1-7.381 22.381A12.988 12.988 0 0 0 48.31 11.11z" opacity="1" data-original="#707070" class=""></path><circle cx="42.401" cy="16.586" r="3" fill="#fec108" opacity="1" data-original="#fec108" class=""></circle><path fill="#ffdc00" d="M47.19 10.18a12.981 12.981 0 0 0-20.38 13.53h-.01L7.43 35.32a.7.7 0 0 1-.58.06l-5.37-1.79a.7.7 0 0 1-.47-.79l.84-4.94a2.02 2.02 0 0 1 .99-1.44c.385-.238.84-.34 1.29-.29l2.25.23a.7.7 0 0 0 .75-.53l.44-1.75a.725.725 0 0 1 .76-.53l2.33.24a.717.717 0 0 0 .77-.54c.18-.75.39-1.69.44-1.79.11-.313.42-.51.75-.48l2.33.24a.688.688 0 0 0 .75-.53l.53-2.05a.7.7 0 0 1 .31-.44l5.16-3.08a13 13 0 0 1 24.69-7.27c.348.746.616 1.527.8 2.33z" opacity="1" data-original="#ffdc00" class=""></path><g fill="#fec108"><path d="m3.066 26.328.314.032a.708.708 0 0 0 .571-.22 1.994 1.994 0 0 0-.885.188zM12.538 20.985a.7.7 0 0 0-.512.23.674.674 0 0 0 .512-.23zM43.39 7.85c.066.141.114.289.174.432a12.974 12.974 0 0 1 3.626 1.9 11.673 11.673 0 0 0-.8-2.33A13.009 13.009 0 0 0 33.006.328 12.98 12.98 0 0 1 43.39 7.85zM8.253 23.556a.7.7 0 0 0-.505.228.7.7 0 0 0 .505-.228zM25.99 12.82a12.913 12.913 0 0 0-2.18 10.89h-.01L5.231 34.84l1.619.54a.7.7 0 0 0 .58-.06L26.8 23.71h.01A12.948 12.948 0 0 1 37.92 7.694a12.987 12.987 0 0 0-11.93 5.126z" fill="#fec108" opacity="1" data-original="#fec108" class=""></path></g></g><g fill="#000"><path d="M32.556 36.791 19.688 54.047a1 1 0 0 0 1.6 1.2l12.871-17.261a1 1 0 1 0-1.6-1.2z" fill="#000000" opacity="1" data-original="#000000" class=""></path><path fill-rule="nonzero" d="m1.168 41.537 5.338 1.783c.18.065.368.1.559.1.31-.001.614-.086.88-.244l18.26-10.94c.231.658.511 1.298.837 1.914l-3.2 4.29a1.723 1.723 0 0 0-.319 1.264l.264 1.852-1.985.588a1.71 1.71 0 0 0-1.233 1.664c.02.418.071.835.155 1.245l.078.5-2 .591a1.719 1.719 0 0 0-1.202 1.888l.217 1.531-1.922.572a3.086 3.086 0 0 0-2.143 3.642l1.1 4.876A1.7 1.7 0 0 0 16.5 60c.045 0 .091 0 .137-.006l5.61-.384c.51-.022.983-.274 1.285-.685l13.134-17.61a13.977 13.977 0 0 0 15.882-18.529A12.484 12.484 0 1 0 34.68 6.254a13.954 13.954 0 0 0-14.056 15.337l-4.612 2.758c-.377.237-.647.61-.755 1.041L14.8 27.2l-2.058-.212a1.713 1.713 0 0 0-1.782 1.068 8.234 8.234 0 0 0-.33 1.233l-.114.479-2.057-.208A1.711 1.711 0 0 0 6.6 30.839l-.377 1.5-1.992-.2a3.025 3.025 0 0 0-1.9.416 3.062 3.062 0 0 0-1.476 2.143L.02 39.617a1.675 1.675 0 0 0 1.148 1.92zm48.576-7.832A11.921 11.921 0 0 1 36.5 39.226a1 1 0 0 0-1.048.371L22.011 57.623l-5.259.36-1.052-4.638c-.07-.313 0-.641.189-.9a1.1 1.1 0 0 1 .568-.391l2.162-.643a1.7 1.7 0 0 0 1.207-1.887l-.217-1.531 2-.591a1.7 1.7 0 0 0 1.206-1.891l-.119-.772c-.046-.292-.09-.561-.114-.742L24.6 43.4a1.7 1.7 0 0 0 1.2-1.886l-.282-1.98 3.513-4.711a1 1 0 0 0 .059-1.108 12 12 0 0 1 18.535-14.874c.963.9 1.768 1.954 2.383 3.119-1.151.55-2.394.884-3.666.984a3.987 3.987 0 1 0-.734 3.034 3.9 3.9 0 0 0 .531-1.021 12.4 12.4 0 0 0 4.654-1.157 11.979 11.979 0 0 1-1.049 9.905zm-8.6-11.667a1.985 1.985 0 0 1 1.26-.452 2 2 0 0 1 1.879 1.331 10.311 10.311 0 0 1-3.138-.879zm2.761 2.852a1.988 1.988 0 0 1-3.473-.974c1.104.493 2.275.821 3.474.974zM45.5 2a10.484 10.484 0 0 1 6.221 18.934 13.758 13.758 0 0 0-2.733-3.556 15.52 15.52 0 0 0-.922-.776 13.694 13.694 0 0 0-.768-2.174 13.872 13.872 0 0 0-8.586-7.559 14.088 14.088 0 0 0-1.8-.415A10.447 10.447 0 0 1 45.5 2zM2.836 35.031c.052-.32.244-.598.524-.76.2-.122.434-.173.666-.147l2.249.23A1.679 1.679 0 0 0 8.1 33.071l.378-1.5 2.079.214c.85.08 1.63-.473 1.836-1.3l.176-.739c.07-.293.132-.566.179-.747l2.094.215a1.694 1.694 0 0 0 1.829-1.281l.494-1.95 5.039-3.012a1 1 0 0 0 .477-1 11.99 11.99 0 0 1 22.589-7.1 13.816 13.816 0 0 0-7.111-1.219 14 14 0 0 0-12.5 16.578L7.035 41.388 2.04 39.72z" fill="#000000" opacity="1" data-original="#000000" class=""></path><path d="M23.271 29.329a1 1 0 0 0-1.027-1.716L6.251 37.2a1 1 0 1 0 1.027 1.716z" fill="#000000" opacity="1" data-original="#000000" class=""></path></g></g></g></svg>
