<svg xmlns="http://www.w3.org/2000/svg" version="1.1" xmlns:xlink="http://www.w3.org/1999/xlink" width="512" height="512" x="0" y="0" viewBox="0 0 512 512" style="enable-background:new 0 0 512 512" xml:space="preserve" class=""><g><path d="M100.028 47.072c0-20.507 17.004-37.132 37.98-37.132h235.984c20.976 0 37.98 16.624 37.98 37.132v417.855c0 20.507-17.004 37.132-37.98 37.132H138.008c-20.976 0-37.98-16.624-37.98-37.132V47.072z" style="" fill="#eaf6ff" data-original="#eaf6ff" class=""></path><path d="M378.213 10.772H363.03c7.483 7.029 12.14 16.913 12.14 27.86v121.974l-10.001 99.018 10.001 118.435v95.31c0 12.175-5.761 23.035-14.763 30.115h15.552c19.057 0 34.534-15.395 34.635-34.451l2.254-423.441c.103-19.2-15.434-34.82-34.635-34.82z" style="" fill="#d8ecfe" data-original="#d8ecfe" class=""></path><path d="M337.792 415.545H141.776a3.054 3.054 0 0 1-3.054-3.054V153.942a3.054 3.054 0 0 1 3.054-3.054h159.276c.81 0 1.587.322 2.159.894l36.74 36.74c.573.573.894 1.349.894 2.159V412.49a3.054 3.054 0 0 1-3.053 3.055z" style="" fill="#c4e2ff" data-original="#c4e2ff"></path><path d="M314.128 116.456h-137.92a3.054 3.054 0 0 0-3.054 3.054v258.549a3.054 3.054 0 0 0 3.054 3.054h177.015l17.001-2a3.054 3.054 0 0 0 3.054-3.054v-214.21c0-.434-.102-.855-.279-1.243l-58.871-44.15z" style="" fill="#d8ecfe" data-original="#d8ecfe" class=""></path><path d="m374.999 160.606-43.871-43.871a2.99 2.99 0 0 0-1.243-.279h-15.758v42.15c0 10.493 8.507 19 19 19h18.149a4 4 0 0 1 4 4v196.453a3.054 3.054 0 0 1-3.054 3.054h20.001a3.054 3.054 0 0 0 3.054-3.054v-216.21a2.97 2.97 0 0 0-.278-1.243z" style="" fill="#c4e2ff" data-original="#c4e2ff"></path><path d="M374.999 160.606a2.978 2.978 0 0 0-.6-.879l-42.393-42.393a2.978 2.978 0 0 0-.879-.6v41.871a2 2 0 0 0 2 2h41.872z" style="" fill="#d8ecfe" data-original="#d8ecfe" class=""></path><path d="m476.312 336.361-17.001 2H33.688a5 5 0 0 1-5-5V194.639a5 5 0 0 1 5-5h425.623l17.001 2a5 5 0 0 1 5 5v134.723a5 5 0 0 1-5 4.999z" style="" fill="#fe99a0" data-original="#fe99a0" class=""></path><path d="M478.312 189.638h-20.001a5 5 0 0 1 5 5v138.723a5 5 0 0 1-5 5h20.001a5 5 0 0 0 5-5V194.638a5 5 0 0 0-5-5z" style="" fill="#fd8087" data-original="#fd8087"></path><path d="M102 340.21V467c0 20.71 16.79 37.5 37.5 37.5h32.11M410 340.21V467c0 20.71-16.79 37.5-37.5 37.5H206.61M260.75 7.5H372.5C393.21 7.5 410 24.29 410 45v142.19M102 185.97V45c0-20.71 16.79-37.5 37.5-37.5h86.25M218.25 37.5h50M293.75 37.5h0" style="stroke-width:15;stroke-linecap:round;stroke-linejoin:round;stroke-miterlimit:10;" fill="none" stroke="#000000" stroke-width="15" stroke-linecap="round" stroke-linejoin="round" stroke-miterlimit="10" data-original="#000000" class=""></path><path d="M340.845 384.798v27.693a3.054 3.054 0 0 1-3.054 3.054H141.776a3.054 3.054 0 0 1-3.054-3.054v-72.28M138.722 187.19v-33.248a3.054 3.054 0 0 1 3.054-3.054h29.096" style="stroke-width:15;stroke-linecap:round;stroke-linejoin:round;stroke-miterlimit:10;" fill="none" stroke="#000000" stroke-width="15" stroke-linecap="round" stroke-linejoin="round" stroke-miterlimit="10" data-original="#000000" class=""></path><path d="M375.278 340.211v37.848a3.054 3.054 0 0 1-3.054 3.054H176.209a3.054 3.054 0 0 1-3.054-3.054v-37.848M173.155 187.19v-67.68a3.054 3.054 0 0 1 3.054-3.054h153.677c.796 0 1.559.316 2.121.879l42.393 42.393a3 3 0 0 1 .879 2.121v26.674" style="stroke-width:15;stroke-linecap:round;stroke-linejoin:round;stroke-miterlimit:10;" fill="none" stroke="#000000" stroke-width="15" stroke-linecap="round" stroke-linejoin="round" stroke-miterlimit="10" data-original="#000000" class=""></path><path d="M331.128 117.196v43.41h43.41M243.25 189.64h235.06c2.76 0 5 2.24 5 5v138.72c0 2.76-2.24 5-5 5H311.25M208.25 189.64H33.69c-2.76 0-5 2.24-5 5v138.72c0 2.76 2.24 5 5 5h242.56" style="stroke-width:15;stroke-linecap:round;stroke-linejoin:round;stroke-miterlimit:10;" fill="none" stroke="#000000" stroke-width="15" stroke-linecap="round" stroke-linejoin="round" stroke-miterlimit="10" data-original="#000000" class=""></path><path d="M163.713 228.263h-30.116v71.474h30.116M160.345 264h-26.576M405.351 228.265h39.47M425.006 230.547v69.188M356.018 265.507l30.024 34.23M347.443 265.507v34.23M386.042 246.838c0 10.259-8.995 18.669-19.627 18.669h-18.972v-37.244h18.972c10.631 0 19.627 8.316 19.627 18.575zM77.754 265.507l30.023 34.23M69.179 265.507v34.23M107.777 246.838c0 10.259-8.995 18.669-19.627 18.669H69.179v-37.244h18.972c10.631 0 19.626 8.316 19.626 18.575zM189.11 268.662v31.075M229.539 248.433c0 11.14-9.425 20.229-20.565 20.229H189.11v-40.399h19.864c11.139 0 20.565 9.03 20.565 20.17z" style="stroke-width:15;stroke-linecap:round;stroke-linejoin:round;stroke-miterlimit:10;" fill="none" stroke="#000000" stroke-width="15" stroke-linecap="round" stroke-linejoin="round" stroke-miterlimit="10" data-original="#000000" class=""></path><circle cx="287.153" cy="264" r="35.737" style="stroke-width:15;stroke-linecap:round;stroke-linejoin:round;stroke-miterlimit:10;" fill="none" stroke="#000000" stroke-width="15" stroke-linecap="round" stroke-linejoin="round" stroke-miterlimit="10" data-original="#000000" class=""></circle></g></svg>
